#!OML:ASF E:\Steps\Project 1\Capture day 1\Session 2\Subject.ASF
:FULLY-SPECIFIED
:DEGREES
2182
root 10.0494 16.4047 5.7553 22.3744 -2.52604 0.797945
lowerback -28.7941 -1.9667 -5.72013
upperback -1.53933 -0.858254 1.04665
thorax 13.6244 -0.759117 3.92708
lowerneck -2.04673 1.17143 -2.12181
upperneck 27.8126 0.768679 4.33947
head 8.97462 0.555369 1.91671
rclavicle 8.09582e-015 -7.76503e-015
rhumerus -27.661 37.2636 -87.846
rradius 100.015
rwrist -41.4492
rhand 36.3086 -261.776
rfingers 7.12502
rthumb 59.2712 1192.75
lclavicle 8.09582e-015 -7.76503e-015
lhumerus -26.9207 -51.6416 82.6692
lradius 102.166
lwrist 11.1691
lhand 69.9828 -12.6397
lfingers 7.12502
lthumb 73.6447 -440.664
rfemur -19.4617 5.88599 17.005
rtibia 5.88323
rfoot -16.0349 -3.76458
rtoes -19.429
lfemur -18.6165 -7.66545 -17.8561
ltibia 5.39857
lfoot -6.72622 -0.141099
ltoes -39.4992
2183
root 10.0495 16.4039 5.75651 22.3662 -2.56857 0.830411
lowerback -28.8319 -1.94287 -5.74411
upperback -1.49554 -0.81111 1.01428
thorax 13.6862 -0.741026 3.92293
lowerneck -2.2188 1.18991 -2.18757
upperneck 28.0734 0.751875 4.52328
head 9.09759 0.560808 1.99725
rclavicle -7.91877e-015 8.34896e-015
rhumerus -28.4322 38.1733 -87.7146
rradius 98.3207
rwrist -35.168
rhand 35.3683 -261.665
rfingers 7.12502
rthumb 58.4575 1193.64
lclavicle -7.91877e-015 8.34896e-015
lhumerus -27.8217 -53.3511 82.3723
lradius 100.401
lwrist 4.192
lhand 68.7289 -12.8753
lfingers 7.12502
lthumb 74.0944 -436.851
rfemur -19.4383 6.04079 16.9287
rtibia 5.83179
rfoot -16.3474 -3.84168
rtoes -16.6812
lfemur -18.6 -7.70443 -17.8853
ltibia 5.42745
lfoot -6.76995 -0.180404
ltoes -38.1727
2184
root 10.048 16.4052 5.75365 22.3929 -2.56235 0.85026
lowerback -28.82 -1.93789 -5.77602
upperback -1.47235 -0.791634 0.995807
thorax 13.7049 -0.734688 3.92802
lowerneck -2.11028 1.26282 -2.42365
upperneck 27.8409 0.800014 4.87231
head 8.98726 0.59223 2.15636
rclavicle -7.14382e-017 -1.19271e-014
rhumerus -29.1469 38.8477 -87.5171
rradius 96.5661
rwrist -28.4149
rhand 34.5829 -262.293
rfingers 7.12502
rthumb 57.7732 1193.63
lclavicle -7.14382e-017 -1.19271e-014
lhumerus -28.5259 -54.623 81.9141
lradius 98.5815
lwrist -2.32811
lhand 67.8109 -12.6722
lfingers 7.12502
lthumb 74.3694 -433.546
rfemur -19.5014 6.1022 16.8949
rtibia 5.84966
rfoot -15.7384 -4.13178
rtoes -22.3073
lfemur -18.6913 -7.75202 -17.8619
ltibia 5.49292
lfoot -6.76957 -0.171325
ltoes -36.8851
2185
root 10.0472 16.4065 5.75039 22.3971 -2.53292 0.855709
lowerback -28.6974 -1.98449 -5.78358
upperback -1.49494 -0.863282 1.02733
thorax 13.6315 -0.76608 3.94014
lowerneck -2.31375 1.28923 -2.52902
upperneck 27.9323 0.830208 4.94904
head 9.05444 0.605097 2.20781
rclavicle 4.08906e-015 5.19325e-015
rhumerus -29.8073 39.5151 -87.2323
rradius 94.7482
rwrist -21.5052
rhand 33.2134 -263.606
rfingers 7.12502
rthumb 56.5704 1193.33
lclavicle 4.08906e-015 5.19325e-015
lhumerus -29.1937 -55.3656 81.4545
lradius 96.6149
lwrist -8.22037
lhand 67.5099 -12.6011
lfingers 7.12502
lthumb 74.4491 -432.434
rfemur -19.5541 5.96136 16.9213
rtibia 5.91872
rfoot -15.5461 -4.07596
rtoes -24.2183
lfemur -18.7334 -7.78178 -17.8463
ltibia 5.50843
lfoot -6.7384 -0.129862
ltoes -37.5177
2186
root 10.0493 16.405 5.75318 22.432 -2.48732 0.856311
lowerback -28.6832 -2.01962 -5.72527
upperback -1.49005 -0.931601 1.0444
thorax 13.6381 -0.794322 3.90095
lowerneck -1.64655 1.29412 -2.07376
upperneck 27.2599 0.889939 4.55728
head 8.69955 0.632703 1.97696
rclavicle -1.94747e-015 2.37299e-015
rhumerus -30.2626 39.841 -86.7701
rradius 92.8065
rwrist -14.4309
rhand 31.751 -265.244
rfingers 7.12502
rthumb 55.2739 1192.69
lclavicle -1.94747e-015 2.37299e-015
lhumerus -29.7956 -55.9315 80.9714
lradius 94.4611
lwrist -13.2945
lhand 66.3459 -12.4452
lfingers 7.12502
lthumb 74.7067 -428.162
rfemur -19.5648 5.83634 16.9327
rtibia 5.91361
rfoot -15.7598 -3.85008
rtoes -21.7198
lfemur -18.7504 -7.82066 -17.8591
ltibia 5.49681
lfoot -6.72955 -0.121343
ltoes -38.0748
2187
root 10.0516 16.403 5.75768 22.487 -2.46594 0.822175
lowerback -28.817 -1.98909 -5.62496
upperback -1.43715 -0.911015 1.01893
thorax 13.7567 -0.782462 3.82521
lowerneck -1.77625 1.35372 -2.1529
upperneck 27.2821 0.942591 4.7275
head 8.72651 0.667256 2.05464
rclavicle 1.46122e-014 2.45996e-015
rhumerus -30.6565 39.7144 -86.2485
rradius 90.8501
rwrist -7.19181
rhand 31.0853 -266.58
rfingers 7.12502
rthumb 54.6799 1191.79
lclavicle 1.46122e-014 2.45996e-015
lhumerus -30.1981 -56.4279 80.3315
lradius 92.0852
lwrist -17.6565
lhand 63.5601 -11.9858
lfingers 7.12502
lthumb 74.9792 -417.452
rfemur -19.5762 5.85666 16.9482
rtibia 5.86368
rfoot -16.3569 -3.69838
rtoes -16.3015
lfemur -18.7542 -7.93612 -17.8106
ltibia 5.43921
lfoot -6.71856 -0.0148509
ltoes -37.1446
2188
root 10.0526 16.4027 5.75616 22.5273 -2.4893 0.809802
lowerback -28.9139 -1.95012 -5.57815
upperback -1.36081 -0.863149 0.988093
thorax 13.8829 -0.762146 3.784
lowerneck -1.95773 1.32363 -2.04096
upperneck 27.4323 0.931272 4.54609
head 8.8161 0.657949 1.9775
rclavicle -6.83322e-016 4.5472e-015
rhumerus -30.9051 39.2064 -85.6224
rradius 88.8415
rwrist 0.267971
rhand 30.5503 -267.457
rfingers 7.12502
rthumb 54.2011 1191.24
lclavicle -6.83322e-016 4.5472e-015
lhumerus -30.3161 -56.5269 79.4383
lradius 89.8051
lwrist -20.9403
lhand 62.1146 -10.8348
lfingers 7.12502
lthumb 74.9231 -410.926
rfemur -19.6549 5.84637 16.9425
rtibia 5.87771
rfoot -15.9908 -3.80558
rtoes -19.8584
lfemur -18.7806 -8.0952 -17.7625
ltibia 5.36915
lfoot -6.69184 0.184555
ltoes -37.2272
2189
root 10.0502 16.4044 5.74865 22.5909 -2.41839 0.854974
lowerback -28.8616 -1.97605 -5.62933
upperback -1.335 -0.881512 0.979281
thorax 13.8907 -0.774141 3.79597
lowerneck -2.01563 1.34212 -1.87822
upperneck 27.269 0.999272 4.3252
head 8.77069 0.685333 1.87633
rclavicle -5.29885e-015 6.38596e-015
rhumerus -30.9813 38.3541 -84.7927
rradius 86.776
rwrist 7.7876
rhand 29.1935 -269
rfingers 7.12502
rthumb 52.9804 1190.5
lclavicle -5.29885e-015 6.38596e-015
lhumerus -30.2236 -56.1545 78.3589
lradius 87.8273
lwrist -22.8064
lhand 62.6175 -8.63219
lfingers 7.12502
lthumb 74.958 -410.589
rfemur -19.7601 5.84408 16.8963
rtibia 5.89619
rfoot -16.3041 -3.82077
rtoes -15.6118
lfemur -18.9613 -8.05567 -17.7752
ltibia 5.48303
lfoot -6.71373 0.0543831
ltoes -37.1888
2190
root 10.0451 16.4059 5.74489 22.6167 -2.23084 0.921964
lowerback -28.7491 -2.05208 -5.73278
upperback -1.30773 -0.955988 0.997566
thorax 13.8798 -0.81504 3.84504
lowerneck -2.39012 1.35303 -1.84011
upperneck 27.5431 1.06642 4.09317
head 8.93686 0.702315 1.80506
rclavicle 4.14652e-015 3.926e-015
rhumerus -30.9681 37.55 -83.8154
rradius 84.7303
rwrist 14.1521
rhand 27.4554 -89.7679
rfingers 7.12502
rthumb 51.4054 1190.22
lclavicle 4.14652e-015 3.926e-015
lhumerus -29.9848 -55.3326 77.1576
lradius 85.8542
lwrist -24.5226
lhand 62.0432 -6.8065
lfingers 7.12502
lthumb 74.9169 -406.634
rfemur -19.7139 5.91533 16.8569
rtibia 5.82291
rfoot -15.7456 -4.24778
rtoes -21.5799
lfemur -19.0978 -7.91734 -17.8295
ltibia 5.57826
lfoot -6.68474 -0.248116
ltoes -36.8698
2191
root 10.0416 16.4051 5.74928 22.5951 -2.13366 0.932948
lowerback -28.7299 -2.06784 -5.76213
upperback -1.1915 -0.969446 1.02355
thorax 14.0079 -0.830115 3.8852
lowerneck -2.49564 1.36144 -2.01681
upperneck 27.3915 1.07822 4.20183
head 8.89955 0.701858 1.87212
rclavicle -6.62823e-015 1.71328e-014
rhumerus -30.8191 36.5419 -82.752
rradius 82.8838
rwrist 19.4804
rhand 26.0479 90.1217
rfingers 7.12502
rthumb 50.1215 1191.28
lclavicle -6.62823e-015 1.71328e-014
lhumerus -29.5223 -54.0451 75.7594
lradius 83.8906
lwrist -26.3735
lhand 60.848 -6.04088
lfingers 7.12502
lthumb 74.7637 -401.493
rfemur -19.6106 5.94781 16.8884
rtibia 5.76564
rfoot -15.5556 -4.47034
rtoes -23.941
lfemur -19.032 -7.91809 -17.8373
ltibia 5.47307
lfoot -6.60773 -0.284515
ltoes -37.4921
2192
root 10.0412 16.4026 5.75418 22.6342 -2.16046 0.878462
lowerback -28.6986 -1.99247 -5.68192
upperback -1.18595 -0.89869 1.02076
thorax 13.9916 -0.792999 3.8663
lowerneck -2.38755 1.29998 -2.04135
upperneck 27.2305 1.00991 4.1537
head 8.82569 0.662026 1.85024
rclavicle -3.45699e-015 1.2921e-015
rhumerus -30.9718 34.7655 -81.7341
rradius 81.597
rwrist 25.0756
rhand 26.4352 90.6104
rfingers 7.12502
rthumb 50.4755 1191.58
lclavicle -3.45699e-015 1.2921e-015
lhumerus -29.3047 -52.413 74.5142
lradius 82.1372
lwrist -27.922
lhand 60.0074 -5.02324
lfingers 7.12502
lthumb 74.6024 -397.462
rfemur -19.6308 5.904 16.9679
rtibia 5.76698
rfoot -15.5671 -4.4117
rtoes -24.0749
lfemur -18.9901 -7.97134 -17.7709
ltibia 5.38248
lfoot -6.58086 -0.181965
ltoes -37.2413
2193
root 10.0419 16.4003 5.75426 22.7163 -2.13682 0.860142
lowerback -28.5207 -1.95975 -5.62687
upperback -1.34903 -0.890176 1.03128
thorax 13.7203 -0.775099 3.85203
lowerneck -2.9813 1.32773 -2.37506
upperneck 28.3045 0.979668 4.52486
head 9.31191 0.656786 2.06261
rclavicle -6.08778e-016 -3.62782e-015
rhumerus -31.2773 32.7228 -80.6473
rradius 80.5345
rwrist 29.7656
rhand 27.6296 90.5151
rfingers 7.12502
rthumb 51.5637 1190.88
lclavicle -6.08778e-016 -3.62782e-015
lhumerus -29.4914 -50.3374 73.5664
lradius 80.5282
lwrist -29.4552
lhand 58.4723 -3.58804
lfingers 7.12502
lthumb 74.1991 -390.719
rfemur -19.7174 5.78445 17.0009
rtibia 5.78317
rfoot -15.5708 -4.27067
rtoes -23.7893
lfemur -19.085 -7.92462 -17.7535
ltibia 5.40556
lfoot -6.56116 -0.217788
ltoes -37.3837
